<?xml version="1.0" encoding="utf-8"?>

<!DOCTYPE svg PUBLIC "-//W3C//DTD SVG 1.1//EN" "http://www.w3.org/Graphics/SVG/1.1/DTD/svg11.dtd">
<svg version="1.1" id="Layer_1" xmlns="http://www.w3.org/2000/svg" xmlns:xlink="http://www.w3.org/1999/xlink" x="0px" y="0px"
	 viewBox="0 0 1616.077 1619.591" enable-background="new 0 0 1616.077 1619.591" xml:space="preserve">
<g>
	<g>
		<rect x="448.857" y="816.54" width="14.118" height="14.118"/>
		<rect x="309.245" y="475.245" width="22.38" height="22.38"/>
		<rect x="435.042" y="103.412" width="14.1" height="14.1"/>
		<rect x="346.115" y="1343.794" width="74.604" height="74.604"/>
		<rect x="1089.977" y="1091.02" width="99.848" height="99.848"/>
		<rect x="641.746" y="1255.175" width="46.997" height="46.997"/>
		<rect x="122.644" y="395.758" width="92.27" height="92.27"/>
		<rect x="586.314" y="284.037" width="105.096" height="105.096"/>
		<rect x="1339.74" y="565.271" width="73.872" height="73.872"/>
		<rect x="679.858" y="492.39" width="102.396" height="102.396"/>
		<rect x="446.613" y="1255.057" width="64.698" height="64.698"/>
		<rect x="288.853" y="1346.147" width="19.126" height="19.126"/>
		<rect x="1353.708" y="452.162" width="82.564" height="82.564"/>
		<rect x="190.218" y="1161.422" width="69.888" height="69.888"/>
		<rect x="1512.475" y="945.963" width="12.626" height="12.626"/>
		<rect x="53.79" y="773.736" width="68.695" height="68.695"/>
		<rect x="788.04" y="254.807" width="81.484" height="81.484"/>
		<rect x="1479.416" y="405.335" width="15.97" height="15.97"/>
		<rect x="984.681" y="756.16" width="24.793" height="24.793"/>
		<rect x="1174.487" y="802.503" width="14.362" height="14.362"/>
		<rect x="236.318" y="254.025" width="11.912" height="11.912"/>
		<rect x="414.81" y="288.234" width="31.627" height="31.627"/>
		<rect x="790.236" y="703.766" width="24.859" height="24.859"/>
		<rect x="834.553" y="850.3" width="49.568" height="49.568"/>
		<rect x="990.305" y="1246.854" width="76.621" height="76.621"/>
		<rect x="1031.92" y="563.905" width="83.777" height="83.777"/>
		<rect x="47.39" y="1010.708" width="13.991" height="13.991"/>
		<rect x="624.588" y="229.083" width="16.138" height="16.138"/>
		<rect x="1219.733" y="849.91" width="14.969" height="14.969"/>
		<rect x="392.471" y="1270.491" width="31.726" height="31.726"/>
		<rect x="1549.567" y="532.86" width="14.438" height="14.438"/>
		<rect x="956.212" y="337.772" width="55.247" height="55.247"/>
		<rect x="498.485" y="1210.277" width="21.468" height="21.468"/>
		<rect x="317.094" y="286.987" width="56.931" height="56.931"/>
		<rect x="248.291" y="1116.395" width="19.036" height="19.036"/>
		<rect x="653.464" y="76.419" width="26.317" height="26.317"/>
		<rect x="523.707" y="469.477" width="14.816" height="14.816"/>
		<rect x="1301.638" y="1072.55" width="93.256" height="93.256"/>
		<rect x="693.276" y="764.99" width="36.641" height="36.641"/>
		<rect x="1181.256" y="887.465" width="70.8" height="70.8"/>
		<rect x="332.451" y="1061.3" width="25.785" height="25.785"/>
		<rect x="874.909" y="941.938" width="25.023" height="25.023"/>
		<rect x="905.199" y="1403.49" width="13.881" height="13.881"/>
		<rect x="168.686" y="831.478" width="18.84" height="18.84"/>
		<rect x="1582.32" y="769.953" width="23.983" height="23.983"/>
		<rect x="644.536" y="944.966" width="55.978" height="55.978"/>
		<rect x="1012.165" y="36.596" width="15.049" height="15.049"/>
		<rect x="447.634" y="405.86" width="22.42" height="22.42"/>
		<rect x="928.205" y="820.528" width="99.983" height="99.983"/>
		<rect x="607.227" y="790.562" width="54.704" height="54.704"/>
		<rect x="849.616" y="991.575" width="17.665" height="17.665"/>
		<rect x="737.347" y="1543.595" width="48.926" height="48.926"/>
		<rect x="1027.935" y="59.724" width="62.351" height="62.351"/>
		<rect x="254.096" y="489.376" width="15.336" height="15.336"/>
		<rect x="717.042" y="1265.997" width="97.96" height="97.96"/>
		<rect x="321.369" y="179.794" width="12.047" height="12.047"/>
		<rect x="1398.846" y="344.353" width="20.642" height="20.642"/>
		<rect x="1410.557" y="723.138" width="26.073" height="26.073"/>
		<rect x="415.793" y="240.177" width="13.582" height="13.582"/>
		<rect x="942.882" y="146.459" width="89.909" height="89.909"/>
		<rect x="753.809" y="136.498" width="27.515" height="27.515"/>
		<rect x="853.639" y="1392.019" width="20.452" height="20.452"/>
		<rect x="391.727" y="1017.003" width="94.369" height="94.369"/>
		<rect x="534.527" y="1282.264" width="21.141" height="21.141"/>
		<rect x="686.402" y="182.421" width="75.71" height="75.71"/>
		<rect x="177.937" y="607.527" width="98.267" height="98.267"/>
		<rect x="1402.521" y="1316.012" width="16.303" height="16.303"/>
		<rect x="1591.025" y="836.864" width="13.397" height="13.397"/>
		<rect x="1249.614" y="1387.569" width="56.238" height="56.238"/>
		<rect x="550.883" y="1209.8" width="44.276" height="44.276"/>
		<rect x="255.746" y="740.74" width="14.7" height="14.7"/>
		<rect x="62.917" y="883.881" width="14.76" height="14.76"/>
		<rect x="806.439" y="1585.433" width="17.508" height="17.508"/>
		<rect x="633.052" y="31.202" width="14.966" height="14.966"/>
		<rect x="838.261" y="1250.599" width="13.242" height="13.242"/>
		<rect x="761.745" y="1160.275" width="13.914" height="13.914"/>
		<rect x="441.737" y="1350.011" width="65.251" height="65.251"/>
		<rect x="515.428" y="1407.862" width="62.214" height="62.214"/>
		<rect x="268.587" y="1223.755" width="98.537" height="98.537"/>
		<rect x="252.698" y="429.182" width="19.535" height="19.535"/>
		<rect x="701.829" y="118.772" width="23.01" height="23.01"/>
		<rect x="429.439" y="353.005" width="19.422" height="19.422"/>
		<rect x="58.359" y="1050.394" width="13.353" height="13.353"/>
		<rect x="362.356" y="610.017" width="14.496" height="14.496"/>
		<rect x="1571.928" y="646.405" width="18.999" height="18.999"/>
		<rect x="1408.452" y="887.41" width="65.995" height="65.995"/>
		<rect x="1222.519" y="797.801" width="34.256" height="34.256"/>
		<rect x="762.26" y="638.408" width="13.214" height="13.214"/>
		<rect x="354.643" y="236.547" width="12.663" height="12.663"/>
		<rect x="294.288" y="1118.146" width="75.952" height="75.952"/>
		<rect x="454.452" y="619.755" width="68.202" height="68.202"/>
		<rect x="1415.919" y="673.558" width="14.2" height="14.2"/>
		<rect x="97.351" y="1115.997" width="72.572" height="72.572"/>
		<rect x="1413.279" y="988.836" width="87.934" height="87.934"/>
		<rect x="739.185" y="820.198" width="50.342" height="50.342"/>
		<rect x="11.993" y="729.292" width="24.598" height="24.598"/>
		<rect x="974.024" y="597.031" width="13.604" height="13.604"/>
		<rect x="959.664" y="1101.125" width="103.213" height="103.213"/>
		<rect x="199.146" y="533.606" width="34.412" height="34.412"/>
		<rect x="1262.903" y="1210.678" width="62.753" height="62.753"/>
		<rect x="610.549" y="141.215" width="51.79" height="51.79"/>
		<rect x="1251.019" y="1316.6" width="23.839" height="23.839"/>
		<rect x="1213.227" y="1346.613" width="14.112" height="14.112"/>
		<rect x="1468.099" y="678.726" width="84.641" height="84.641"/>
		<rect x="489.893" y="1128.595" width="55.765" height="55.765"/>
		<rect x="485.823" y="115.654" width="15.188" height="15.188"/>
		<rect x="812.857" y="650.93" width="20.863" height="20.863"/>
		<rect x="109.542" y="991.972" width="90.887" height="90.887"/>
		<rect x="835.342" y="1318.137" width="41.067" height="41.067"/>
		<rect x="1401.888" y="387.205" width="41.598" height="41.598"/>
		<rect x="1343.059" y="774.494" width="16.361" height="16.361"/>
		<rect x="1060.685" y="752.994" width="72.906" height="72.906"/>
		<rect x="1047.813" y="670.59" width="21.927" height="21.927"/>
		<rect x="807.086" y="131.381" width="100.51" height="100.51"/>
		<rect x="1565.847" y="593.75" width="13.011" height="13.011"/>
		<rect x="190.182" y="298.18" width="81.221" height="81.221"/>
		<rect x="1213.047" y="1295.528" width="12.181" height="12.181"/>
		<rect x="944.127" y="1338.742" width="45.423" height="45.423"/>
		<rect x="1584.974" y="710.876" width="15.256" height="15.256"/>
		<rect x="446.553" y="558.905" width="18.736" height="18.736"/>
		<rect x="758.768" y="1200.195" width="48.765" height="48.765"/>
		<rect x="551.859" y="632.283" width="14.163" height="14.163"/>
		<rect x="1490.343" y="798.137" width="69.487" height="69.487"/>
		<rect x="1085.82" y="1214.688" width="21.955" height="21.955"/>
		<rect x="447.329" y="732.902" width="33.022" height="33.022"/>
		<rect x="12.919" y="850.076" width="17.285" height="17.285"/>
		<rect x="1135.076" y="423.308" width="14.017" height="14.017"/>
		<rect x="1010.375" y="514.305" width="28.578" height="28.578"/>
		<rect x="233.174" y="786.546" width="75.24" height="75.24"/>
		<rect x="1391.423" y="786.33" width="65.896" height="65.896"/>
		<rect x="1076.524" y="849.495" width="25.159" height="25.159"/>
		<rect x="797.318" y="878.606" width="11.92" height="11.92"/>
		<rect x="974.939" y="1011.906" width="61.244" height="61.244"/>
		<rect x="491.125" y="75.778" width="12.989" height="12.989"/>
		<rect x="185.896" y="1268.455" width="44.295" height="44.295"/>
		<rect x="596.801" y="559.846" width="64.969" height="64.969"/>
		<rect x="913.916" y="602.039" width="14.276" height="14.276"/>
		<rect x="307.25" y="387.691" width="48.922" height="48.922"/>
		<rect x="580.702" y="1273.977" width="37.813" height="37.813"/>
		<rect x="728.815" y="371.295" width="95.608" height="95.608"/>
		<rect x="1184.681" y="1203.347" width="58.213" height="58.213"/>
		<rect x="810.328" y="515.344" width="43.536" height="43.536"/>
		<rect x="583.99" y="659.126" width="94.757" height="94.757"/>
		<rect x="1470.086" y="456.981" width="57.921" height="57.921"/>
		<rect x="680.074" y="26.264" width="14.403" height="14.403"/>
		<rect x="848.218" y="1558.555" width="51.241" height="51.241"/>
		<rect x="1046.006" y="285.884" width="84.051" height="84.051"/>
		<rect x="908.608" y="1125.658" width="36.59" height="36.59"/>
		<rect x="1122.519" y="464.999" width="88.128" height="88.128"/>
		<rect x="845.256" y="466.612" width="20.131" height="20.131"/>
		<rect x="278.3" y="986.687" width="18.541" height="18.541"/>
		<rect x="702.051" y="625.486" width="24.267" height="24.267"/>
		<rect x="1163.813" y="191.9" width="14.544" height="14.544"/>
		<rect x="397.092" y="1157.758" width="66.894" height="66.894"/>
		<rect x="371.827" y="144.342" width="58.708" height="58.708"/>
		<rect x="1537.94" y="1077.465" width="18.481" height="18.481"/>
		<rect x="1014.033" y="395.726" width="91.449" height="91.449"/>
		<rect x="1285.271" y="933.146" width="105.006" height="105.006"/>
		<rect x="387.948" y="374.9" width="16.408" height="16.408"/>
		<rect x="1115.474" y="1034.753" width="22.083" height="22.083"/>
		<rect x="240.391" y="1034.497" width="55.291" height="55.291"/>
		<rect x="803.89" y="598.004" width="18.466" height="18.466"/>
		<rect x="394.468" y="426.541" width="15.201" height="15.201"/>
		<rect x="1291.826" y="775.495" width="17.527" height="17.527"/>
		<rect x="516.425" y="1002.416" width="101.161" height="101.161"/>
		<rect x="945.251" y="947.072" width="44.38" height="44.38"/>
		<rect x="882.282" y="1017.694" width="62.635" height="62.635"/>
		<rect x="1223.329" y="1124.627" width="47.642" height="47.642"/>
		<rect x="533.709" y="875.819" width="96.74" height="96.74"/>
		<rect x="1067.555" y="1057.994" width="14.073" height="14.073"/>
		<rect x="817.477" y="1047.45" width="38.719" height="38.719"/>
		<rect x="1154.034" y="636.294" width="13.154" height="13.154"/>
		<rect x="29.871" y="610.396" width="13.674" height="13.674"/>
		<rect x="1587.174" y="887.67" width="13.423" height="13.423"/>
		<rect x="722.166" y="913.44" width="102.995" height="102.995"/>
		<rect x="35.12" y="940.793" width="39.694" height="39.694"/>
		<rect x="361.107" y="1456.727" width="11.784" height="11.784"/>
		<rect x="1045.036" y="1442.214" width="104.484" height="104.484"/>
		<rect x="1399.799" y="291.325" width="29.291" height="29.291"/>
		<rect x="414.074" y="1447.822" width="68.74" height="68.74"/>
		<rect x="942.261" y="639.547" width="69.865" height="69.865"/>
		<rect x="280.176" y="221.735" width="28.654" height="28.654"/>
		<rect x="710.571" y="1056.509" width="78.133" height="78.133"/>
		<rect x="717.832" y="685.613" width="38.789" height="38.789"/>
		<rect x="1479.836" y="1212.933" width="14.387" height="14.387"/>
		<rect x="1135.893" y="1374.419" width="52.954" height="52.954"/>
		<rect x="379.307" y="541.983" width="26.894" height="26.894"/>
		<rect x="494.079" y="774.858" width="78.536" height="78.536"/>
		<rect x="819.147" y="49.783" width="45.702" height="45.702"/>
		<rect x="846.161" y="708.849" width="94.821" height="94.821"/>
		<rect x="506.083" y="400.765" width="40.106" height="40.106"/>
		<rect x="717.419" y="292.268" width="48.788" height="48.788"/>
		<rect x="1148.472" y="841.64" width="26.994" height="26.994"/>
		<rect x="723.939" y="15.279" width="64.835" height="64.835"/>
		<rect x="339.157" y="762.826" width="79.603" height="79.603"/>
		<rect x="893.547" y="22.924" width="94.137" height="94.137"/>
		<rect x="1097.843" y="1264.798" width="81.982" height="81.982"/>
		<rect x="1180.754" y="1488.686" width="13.143" height="13.143"/>
		<rect x="1098.784" y="679.424" width="40.646" height="40.646"/>
		<rect x="1443.576" y="552.865" width="94.271" height="94.271"/>
		<rect x="18.809" y="671.784" width="14.118" height="14.118"/>
		<rect x="410.222" y="603.888" width="13.759" height="13.759"/>
		<rect x="1137.452" y="383.361" width="13.801" height="13.801"/>
		<rect x="796.093" y="770.151" width="27.282" height="27.282"/>
		<rect x="361.349" y="659.157" width="63.577" height="63.577"/>
		<rect x="615.373" y="1465.099" width="84.809" height="84.809"/>
		<rect x="927.928" y="1491.923" width="98.796" height="98.796"/>
		<rect x="1069.563" y="1023.068" width="13.001" height="13.001"/>
		<rect x="639.226" y="1166.917" width="20.986" height="20.986"/>
		<rect x="1071.788" y="513.43" width="21.787" height="21.787"/>
		<rect x="1543.173" y="902.266" width="14.535" height="14.535"/>
		<rect x="876.65" y="1222.69" width="86.067" height="86.067"/>
		<rect x="1115.927" y="90.463" width="67.736" height="67.736"/>
		<rect x="961.2" y="425.506" width="23.004" height="23.004"/>
		<rect x="1023.052" y="1219.437" width="14.277" height="14.277"/>
		<rect x="1044.191" y="898.536" width="102.312" height="102.312"/>
		<rect x="148.546" y="737.092" width="70.724" height="70.724"/>
		<rect x="1300.408" y="1306.93" width="76.52" height="76.52"/>
		<rect x="1352.043" y="1187.977" width="102.14" height="102.14"/>
		<rect x="327.625" y="991.28" width="38.66" height="38.66"/>
		<rect x="1442.563" y="1101.112" width="77.718" height="77.718"/>
		<rect x="579.641" y="424.803" width="79.11" height="79.11"/>
		<rect x="1305.101" y="671.312" width="76.154" height="76.154"/>
		<rect x="716.202" y="1396.256" width="104.001" height="104.001"/>
		<rect x="835.886" y="9.795" width="11.993" height="11.993"/>
		<rect x="900.835" y="1351.462" width="17.191" height="17.191"/>
		<rect x="1176.083" y="351.002" width="83.853" height="83.853"/>
		<rect x="1240.082" y="448.894" width="85.198" height="85.198"/>
		<rect x="528.722" y="1333.692" width="48.047" height="48.047"/>
		<rect x="1153.924" y="588.534" width="17.727" height="17.727"/>
		<rect x="291.735" y="881.956" width="77.098" height="77.098"/>
		<rect x="312.529" y="640.484" width="15.105" height="15.105"/>
		<rect x="1498.492" y="897.148" width="20.357" height="20.357"/>
		<rect x="1059.855" y="181.409" width="77.526" height="77.526"/>
		<rect x="853.422" y="596.05" width="20.884" height="20.884"/>
		<rect x="1519.701" y="983.685" width="61.064" height="61.064"/>
		<rect x="668.169" y="889.815" width="18.581" height="18.581"/>
		<rect x="64.749" y="1092.876" width="16.88" height="16.88"/>
		<rect x="892.947" y="264.714" width="62.811" height="62.811"/>
		<rect x="690.499" y="842.189" width="18.142" height="18.142"/>
		<rect x="138.146" y="1227.253" width="21.823" height="21.823"/>
		<rect x="57.678" y="643.452" width="86.348" height="86.348"/>
		<rect x="544.604" y="54.556" width="63.852" height="63.852"/>
		<rect x="9.774" y="794.521" width="13.779" height="13.779"/>
		<rect x="1276.571" y="225.988" width="95.99" height="95.99"/>
		<rect x="768.15" y="100.882" width="15.285" height="15.285"/>
		<rect x="1453.527" y="353.565" width="14.434" height="14.434"/>
		<rect x="863.754" y="371.895" width="67.171" height="67.171"/>
		<rect x="1212.62" y="1455.654" width="22.892" height="22.892"/>
		<rect x="511.391" y="1486.218" width="83.406" height="83.406"/>
		<rect x="427.204" y="466.156" width="51.481" height="51.481"/>
		<rect x="686.406" y="429.999" width="14.963" height="14.963"/>
		<rect x="1137.142" y="1219.753" width="14.333" height="14.333"/>
		<rect x="874.14" y="647.774" width="27.216" height="27.216"/>
		<rect x="1208.164" y="556.968" width="100.475" height="100.475"/>
		<rect x="1566.505" y="934.113" width="24.624" height="24.624"/>
		<rect x="680.994" y="1174.985" width="52.61" height="52.61"/>
		<rect x="1172.294" y="989.713" width="96.943" height="96.943"/>
		<rect x="596.843" y="1334.312" width="104.98" height="104.98"/>
		<rect x="822.754" y="1445.469" width="94.888" height="94.888"/>
		<rect x="515.241" y="706.403" width="37.601" height="37.601"/>
		<rect x="1283.363" y="822.093" width="83.253" height="83.253"/>
		<rect x="950.687" y="1411.078" width="53.511" height="53.511"/>
		<rect x="498.924" y="514.995" width="78.127" height="78.127"/>
		<rect x="811.013" y="1117.131" width="86.3" height="86.3"/>
		<rect x="1032.37" y="714.023" width="28.47" height="28.47"/>
		<rect x="640.261" y="1033.881" width="53.337" height="53.337"/>
		<rect x="285.301" y="1389.869" width="39.198" height="39.198"/>
		<rect x="889.028" y="828.85" width="12.29" height="12.29"/>
		<rect x="241.032" y="947.127" width="13.568" height="13.568"/>
		<rect x="1068.353" y="142.013" width="18.567" height="18.567"/>
		<rect x="240.887" y="900.201" width="13.561" height="13.561"/>
		<rect x="231.979" y="991.592" width="13.43" height="13.43"/>
		<rect x="1156.215" y="240.371" width="89.403" height="89.403"/>
		<rect x="203.266" y="1112.45" width="14.855" height="14.855"/>
		<rect x="627.267" y="1213.414" width="16.272" height="16.272"/>
		<rect x="64.679" y="517.475" width="89.476" height="89.476"/>
		<rect x="1169.212" y="678.721" width="95.523" height="95.523"/>
		<rect x="834.536" y="353.35" width="15.045" height="15.045"/>
		<rect x="984.012" y="265.753" width="41.544" height="41.544"/>
		<rect x="474.864" y="158.673" width="98.558" height="98.558"/>
		<rect x="889.366" y="479.653" width="90.811" height="90.811"/>
		<rect x="1294.908" y="351.099" width="70.628" height="70.628"/>
		<rect x="83.826" y="467.664" width="12.949" height="12.949"/>
		<rect x="18.206" y="903.04" width="12.571" height="12.571"/>
		<rect x="756.751" y="761.129" width="14.561" height="14.561"/>
		<rect x="622.503" y="1568.445" width="24.64" height="24.64"/>
		<rect x="678.349" y="1569.841" width="32.38" height="32.38"/>
		<rect x="398.64" y="876.181" width="102.865" height="102.865"/>
		<rect x="1026.558" y="1352.803" width="65.541" height="65.541"/>
		<rect x="656.993" y="1122.122" width="18.51" height="18.51"/>
		<rect x="232.911" y="1346.843" width="19.484" height="19.484"/>
		<rect x="300.122" y="702.411" width="32.437" height="32.437"/>
		<rect x="282.803" y="534.187" width="57.584" height="57.584"/>
		<rect x="369.162" y="479.633" width="20.57" height="20.57"/>
		<rect x="1204.316" y="141.166" width="78.264" height="78.264"/>
		<rect x="1214.969" y="1400.015" width="12.466" height="12.466"/>
		<rect x="573.227" y="1133.386" width="46.404" height="46.404"/>
		<rect x="482.119" y="294.436" width="72.213" height="72.213"/>
		<rect x="111.959" y="871.113" width="91.22" height="91.22"/>
	</g>
</g>
</svg>
